<?xml version="1.0" encoding="UTF-8" standalone="no"?>
<svg width="280px" height="43px" viewBox="0 0 280 43" version="1.1" xmlns="http://www.w3.org/2000/svg" xmlns:xlink="http://www.w3.org/1999/xlink" xmlns:sketch="http://www.bohemiancoding.com/sketch/ns">
    <!-- Generator: Sketch 3.0.3 (7891) - http://www.bohemiancoding.com/sketch -->
    <title>Untitled</title>
    <desc>Created with Sketch.</desc>
    <defs></defs>
    <g id="Page-1" stroke="none" stroke-width="1" fill="none" fill-rule="evenodd" sketch:type="MSPage">
        <g id="Imported-Layers" sketch:type="MSLayerGroup">
            <path d="M21.5965583,16.7374032 C21.5965583,18.6349516 20.1092804,20.0678226 18.1346104,20.0678226 L12.2189677,20.0678226 L12.2189677,13.4638548 L18.1346104,13.4638548 C20.1420521,13.4638548 21.5965583,14.8405484 21.5965583,16.7374032 L21.5965583,16.7374032 Z M46.7847568,23.7304516 L37.1449926,40.3346935 C36.4198313,41.5872419 34.6383052,42.6102258 33.1872854,42.6102258 L13.9084541,42.6102258 C12.4588288,42.6102258 10.6766055,41.5872419 9.95144417,40.3346935 L0.31098263,23.7304516 C-0.414875931,22.4806774 -0.414875931,20.4333226 0.31098263,19.1828548 L9.95144417,2.57791935 C10.6766055,1.32537097 12.4588288,0.303774194 13.9084541,0.303774194 L33.1872854,0.303774194 C34.6383052,0.303774194 36.4198313,1.32537097 37.1449926,2.57791935 L46.7847568,19.1828548 C47.5092208,20.4333226 47.5092208,22.4806774 46.7847568,23.7304516 L46.7847568,23.7304516 Z M24.6227122,16.7374032 C24.6227122,13.466629 22.0574541,10.9982903 18.6540769,10.9982903 L10.7205335,10.9982903 C9.90751613,10.9982903 9.22209926,11.6828226 9.22209926,12.4887258 L9.22209926,29.4182419 L12.2189677,29.4182419 L12.2189677,22.5306129 L18.6540769,22.5306129 C22.0574541,22.5306129 24.6227122,20.0393871 24.6227122,16.7374032 L24.6227122,16.7374032 Z M38.6796849,21.6657581 C38.6796849,18.3062097 36.0063499,15.773371 32.459335,15.773371 C28.9116228,15.773371 26.2375906,18.3062097 26.2375906,21.6657581 L26.2375906,29.3974355 L29.1772829,29.3974355 L29.1772829,21.685871 C29.1772829,19.6704194 30.4951241,18.3159194 32.459335,18.3159194 C34.4235459,18.3159194 35.7427816,19.6704194 35.7427816,21.685871 L35.7427816,29.3974355 L38.6796849,29.3974355 L38.6796849,21.6657581 L38.6796849,21.6657581 Z" id="Fill-1" fill="#24ABD1" sketch:type="MSShapeGroup"></path>
            <path d="M69.185268,22.7886129 L63.3365633,22.7886129 L63.3365633,29.4050645 L59.7895484,29.4050645 L59.7895484,12.8098387 C59.7895484,11.8444194 60.592804,11.0454516 61.5634045,11.0454516 L69.185268,11.0454516 C72.8438462,11.0454516 75.2550074,13.7190806 75.2550074,16.8892903 C75.2550074,20.0601935 72.8438462,22.7886129 69.185268,22.7886129 L69.185268,22.7886129 Z M68.6860223,14.0776452 L63.3365633,14.0776452 L63.3365633,19.7564194 L68.6860223,19.7564194 C70.293928,19.7564194 71.6794045,18.6259355 71.6794045,16.8892903 C71.6794045,15.1255968 70.293928,14.0776452 68.6860223,14.0776452 L68.6860223,14.0776452 Z" id="Fill-2" fill="#2F373C" sketch:type="MSShapeGroup"></path>
            <path d="M80.4929032,23.4225161 L80.4929032,29.4050645 L77.1118387,29.4050645 L77.1118387,15.9800484 L80.409928,15.9800484 L80.409928,18.4053871 C80.9921489,17.1653226 82.987737,15.7317581 85.0105186,15.7317581 L85.0105186,18.9019677 C82.0178337,18.9019677 80.4929032,20.7488871 80.4929032,23.4225161" id="Fill-3" fill="#2F373C" sketch:type="MSShapeGroup"></path>
            <path d="M89.6641017,23.7817742 C89.7191861,25.7937581 91.4930422,26.9790323 93.9878759,26.9790323 C95.2624864,26.9790323 96.7044417,26.7862258 97.9511613,26.4554032 L98.5605757,28.882129 C97.0363424,29.3773226 95.6229752,29.6263065 93.9599851,29.6263065 C89.0818809,29.6263065 86.3660124,26.8139677 86.3660124,22.6783387 C86.3660124,18.9845 88.8322581,15.7317581 92.9343002,15.7317581 C96.8425012,15.7317581 99.226469,18.5981935 99.226469,22.7615645 L99.226469,23.7817742 L89.6641017,23.7817742 L89.6641017,23.7817742 Z M92.9343002,18.3228548 C91.188335,18.3228548 89.9409181,19.3708065 89.6919926,21.4105323 L96.0106576,21.4105323 C95.8175136,19.4810806 94.8190223,18.3228548 92.9343002,18.3228548 L92.9343002,18.3228548 Z" id="Fill-4" fill="#2F373C" sketch:type="MSShapeGroup"></path>
            <path d="M108.622189,29.6263065 C104.131767,29.6263065 101.166275,26.5934194 101.166275,22.6783387 C101.166275,18.7646452 104.131767,15.7317581 108.622189,15.7317581 C109.869605,15.7317581 111.03335,15.8968226 112.14201,16.310871 L111.58768,18.7369032 C110.645667,18.5156613 109.702958,18.433129 108.899005,18.433129 C105.961404,18.433129 104.548037,20.1697742 104.548037,22.6783387 C104.548037,25.1869032 105.961404,26.9512903 108.899005,26.9512903 C109.841715,26.9512903 110.562692,26.8139677 111.58768,26.538629 L112.14201,28.9917097 C111.199998,29.3502742 109.730849,29.6263065 108.622189,29.6263065" id="Fill-5" fill="#2F373C" sketch:type="MSShapeGroup"></path>
            <path d="M115.46799,10.521129 L118.849752,10.521129 L118.849752,13.7468226 L115.46799,13.7468226 L115.46799,10.521129 Z M115.46799,15.9800484 L118.849752,15.9800484 L118.849752,29.4050645 L115.46799,29.4050645 L115.46799,15.9800484 Z" id="Fill-6" fill="#2F373C" sketch:type="MSShapeGroup"></path>
            <path d="M127.413628,29.6263065 C125.667663,29.6263065 123.561208,29.1297258 121.898218,28.4132903 L122.64639,26.0697903 C124.281489,26.6489032 126.000261,27.0352097 127.385737,27.0352097 C129.159593,27.0352097 129.769705,26.5108871 129.769705,25.7660161 C129.769705,24.9670484 129.243266,24.7465 127.191896,23.9190968 C123.589099,22.4584839 122.397464,21.7420484 122.397464,19.4810806 C122.397464,16.9725161 124.33727,15.7317581 127.857092,15.7317581 C129.159593,15.7317581 131.127988,15.9523065 132.596439,16.4488871 L132.014916,18.9019677 C130.905558,18.5981935 129.243266,18.3228548 127.912176,18.3228548 C126.13832,18.3228548 125.639772,18.654371 125.639772,19.3708065 C125.639772,20.253 126.277077,20.4728548 128.661045,21.4105323 C132.042109,22.7338226 133.067794,23.3677258 133.067794,25.6286935 C133.067794,28.0269839 130.822583,29.6263065 127.413628,29.6263065" id="Fill-7" fill="#2F373C" sketch:type="MSShapeGroup"></path>
            <path d="M136.033285,10.521129 L139.415047,10.521129 L139.415047,13.7468226 L136.033285,13.7468226 L136.033285,10.521129 Z M136.033285,15.9800484 L139.415047,15.9800484 L139.415047,29.4050645 L136.033285,29.4050645 L136.033285,15.9800484 Z" id="Fill-8" fill="#2F373C" sketch:type="MSShapeGroup"></path>
            <path d="M149.086886,29.6263065 C144.985541,29.6263065 142.241782,26.372871 142.241782,22.6783387 C142.241782,18.9845 144.985541,15.7317581 149.086886,15.7317581 C153.188928,15.7317581 155.961275,18.9845 155.961275,22.6783387 C155.961275,26.372871 153.188928,29.6263065 149.086886,29.6263065 L149.086886,29.6263065 Z M149.086886,18.3505968 C146.925347,18.3505968 145.650737,20.0872419 145.650737,22.6783387 C145.650737,25.270129 146.925347,26.9790323 149.086886,26.9790323 C151.249122,26.9790323 152.579514,25.270129 152.579514,22.6783387 C152.579514,20.0872419 151.249122,18.3505968 149.086886,18.3505968 L149.086886,18.3505968 Z" id="Fill-9" fill="#2F373C" sketch:type="MSShapeGroup"></path>
            <path d="M167.767459,29.4050645 L167.767459,21.3827903 C167.767459,19.7286774 167.019288,18.7369032 165.328407,18.7369032 C163.804174,18.7369032 162.169074,20.0601935 162.169074,21.9341613 L162.169074,29.4050645 L158.78801,29.4050645 L158.78801,15.9800484 L162.086099,15.9800484 L162.086099,18.103 C162.945136,16.8338065 164.691102,15.7317581 166.687387,15.7317581 C169.735854,15.7317581 171.149221,17.7992258 171.149221,20.8869032 L171.149221,29.4050645 L167.767459,29.4050645" id="Fill-10" fill="#2F373C" sketch:type="MSShapeGroup"></path>
            <path d="M190.800395,29.5437742 C190.467099,29.5437742 190.107308,29.4598548 189.857685,29.1297258 L179.158767,15.3454516 L179.158767,29.4050645 L176.720412,29.4050645 L176.720412,12.0920161 C176.720412,11.4033226 177.301935,10.8519516 177.967132,10.8519516 C178.355511,10.8519516 178.688109,10.9629194 178.937732,11.2930484 L189.608062,25.0495806 L189.608062,11.0454516 L192.047114,11.0454516 L192.047114,28.3307581 C192.047114,29.0471935 191.465591,29.5437742 190.800395,29.5437742" id="Fill-11" fill="#2F373C" sketch:type="MSShapeGroup"></path>
            <path d="M205.04563,29.4050645 L205.04563,27.0622581 C204.131509,28.5506129 202.413434,29.6263065 200.389955,29.6263065 C197.341489,29.6263065 195.816558,27.6684194 195.816558,24.6917097 L195.816558,15.9800484 L198.283501,15.9800484 L198.283501,24.3879355 C198.283501,26.372871 199.142538,27.420129 201.138127,27.420129 C203.050739,27.420129 205.018437,25.7660161 205.018437,23.0923871 L205.018437,15.9800484 L207.457489,15.9800484 L207.457489,29.4050645 L205.04563,29.4050645" id="Fill-12" fill="#2F373C" sketch:type="MSShapeGroup"></path>
            <path d="M215.716658,29.6263065 C213.499337,29.6263065 212.058079,28.5783548 212.058079,25.7112258 L212.058079,17.7992258 L210.229139,17.7992258 L210.229139,15.9800484 L212.058079,15.9800484 L212.058079,12.1759355 L214.497132,12.1759355 L214.497132,15.9800484 L217.130025,15.9800484 L217.130025,17.7992258 L214.497132,17.7992258 L214.497132,25.6557419 C214.497132,27.2828065 215.079352,27.7239032 216.049953,27.7239032 C216.409744,27.7239032 216.90899,27.6684194 217.352454,27.5858871 L217.60138,29.3773226 C217.019159,29.5437742 216.243794,29.6263065 215.716658,29.6263065" id="Fill-13" fill="#2F373C" sketch:type="MSShapeGroup"></path>
            <path d="M223.116789,22.9273226 L223.116789,29.4050645 L220.677737,29.4050645 L220.677737,15.9800484 L223.088898,15.9800484 L223.088898,18.654371 C223.837767,17.1930645 225.667404,15.7595 227.718077,15.7595 L227.718077,17.8817581 C225.113074,17.8817581 223.116789,20.4451129 223.116789,22.9273226" id="Fill-14" fill="#2F373C" sketch:type="MSShapeGroup"></path>
            <path d="M230.240104,10.7964677 L232.679156,10.7964677 L232.679156,13.7468226 L230.240104,13.7468226 L230.240104,10.7964677 Z M230.240104,15.9800484 L232.679156,15.9800484 L232.679156,29.4050645 L230.240104,29.4050645 L230.240104,15.9800484 Z" id="Fill-15" fill="#2F373C" sketch:type="MSShapeGroup"></path>
            <path d="M241.659303,29.6263065 C239.441983,29.6263065 238.001422,28.5783548 238.001422,25.7112258 L238.001422,17.7992258 L236.171784,17.7992258 L236.171784,15.9800484 L238.001422,15.9800484 L238.001422,12.1759355 L240.439777,12.1759355 L240.439777,15.9800484 L243.07267,15.9800484 L243.07267,17.7992258 L240.439777,17.7992258 L240.439777,25.6557419 C240.439777,27.2828065 241.021998,27.7239032 241.992598,27.7239032 C242.35239,27.7239032 242.851635,27.6684194 243.295099,27.5858871 L243.544025,29.3773226 C242.961804,29.5437742 242.186439,29.6263065 241.659303,29.6263065" id="Fill-16" fill="#2F373C" sketch:type="MSShapeGroup"></path>
            <path d="M246.620382,10.7964677 L249.059434,10.7964677 L249.059434,13.7468226 L246.620382,13.7468226 L246.620382,10.7964677 Z M246.620382,15.9800484 L249.059434,15.9800484 L249.059434,29.4050645 L246.620382,29.4050645 L246.620382,15.9800484 Z" id="Fill-17" fill="#2F373C" sketch:type="MSShapeGroup"></path>
            <path d="M258.9544,29.6263065 C254.962526,29.6263065 252.413305,26.3999194 252.413305,22.6783387 C252.413305,18.9574516 254.962526,15.7317581 258.9544,15.7317581 C262.944878,15.7317581 265.522687,18.9574516 265.522687,22.6783387 C265.522687,26.3999194 262.973467,29.6263065 258.9544,29.6263065 L258.9544,29.6263065 Z M258.9544,17.7166935 C256.404481,17.7166935 254.852357,19.7286774 254.852357,22.6783387 C254.852357,25.6286935 256.404481,27.6406774 258.9544,27.6406774 C261.50362,27.6406774 263.083635,25.6286935 263.083635,22.6783387 C263.083635,19.7286774 261.50362,17.7166935 258.9544,17.7166935 L258.9544,17.7166935 Z" id="Fill-18" fill="#2F373C" sketch:type="MSShapeGroup"></path>
            <path d="M277.329568,29.4050645 L277.329568,20.9694355 C277.329568,18.9845 276.470531,17.9365484 274.47564,17.9365484 C272.56233,17.9365484 270.594633,19.6184032 270.594633,22.2934194 L270.594633,29.4050645 L268.155581,29.4050645 L268.155581,15.9800484 L270.566742,15.9800484 L270.566742,18.3228548 C271.482258,16.8338065 273.200333,15.7317581 275.223811,15.7317581 C278.272278,15.7317581 279.76862,17.7166935 279.76862,20.6940968 L279.76862,29.4050645 L277.329568,29.4050645" id="Fill-19" fill="#2F373C" sketch:type="MSShapeGroup"></path>
        </g>
    </g>
</svg>